<svg width="220" height="40" viewBox="0 0 220 40" fill="none" xmlns="http://www.w3.org/2000/svg">
<rect width="220" height="40" fill="white"/>
<path d="M77.5933 17.6172C77.5469 17.183 77.3514 16.8449 77.0067 16.603C76.6653 16.361 76.2211 16.2401 75.6743 16.2401C75.2898 16.2401 74.96 16.2981 74.6849 16.4141C74.4098 16.5301 74.1994 16.6875 74.0535 16.8864C73.9077 17.0852 73.8331 17.3123 73.8298 17.5675C73.8298 17.7796 73.8779 17.9635 73.974 18.1193C74.0734 18.2751 74.2077 18.4077 74.3767 18.517C74.5457 18.6231 74.733 18.7126 74.9385 18.7855C75.144 18.8584 75.3511 18.9197 75.5599 18.9695L76.5145 19.2081C76.8989 19.2976 77.2685 19.4186 77.6231 19.571C77.9811 19.7235 78.3009 19.9157 78.5827 20.1477C78.8677 20.3797 79.0931 20.6598 79.2588 20.9879C79.4245 21.3161 79.5074 21.7005 79.5074 22.1413C79.5074 22.7379 79.3549 23.2633 79.05 23.7173C78.7451 24.1681 78.3042 24.5211 77.7275 24.7763C77.1541 25.0282 76.4598 25.1541 75.6444 25.1541C74.8523 25.1541 74.1646 25.0315 73.5812 24.7862C73.0012 24.541 72.5471 24.183 72.219 23.7124C71.8942 23.2417 71.7185 22.6683 71.692 21.9922H73.5067C73.5332 22.3468 73.6425 22.6418 73.8348 22.8771C74.027 23.1125 74.2773 23.2881 74.5855 23.4041C74.897 23.5201 75.2451 23.5781 75.6295 23.5781C76.0306 23.5781 76.3819 23.5185 76.6835 23.3991C76.9884 23.2765 77.2271 23.1075 77.3994 22.892C77.5718 22.6733 77.6596 22.4181 77.6629 22.1264C77.6596 21.8613 77.5817 21.6425 77.4292 21.4702C77.2768 21.2945 77.063 21.1487 76.7879 21.0327C76.5161 20.9134 76.1979 20.8073 75.8334 20.7145L74.675 20.4162C73.8364 20.2008 73.1736 19.8743 72.6863 19.4368C72.2024 18.996 71.9605 18.411 71.9605 17.6818C71.9605 17.0819 72.1229 16.5566 72.4477 16.1058C72.7758 15.6551 73.2216 15.3054 73.7851 15.0568C74.3485 14.8049 74.9865 14.679 75.6991 14.679C76.4217 14.679 77.0547 14.8049 77.5983 15.0568C78.1452 15.3054 78.5744 15.6518 78.8859 16.0959C79.1975 16.5367 79.3582 17.0438 79.3682 17.6172H77.5933ZM81.1517 25V14.8182H82.9962V19.1286H87.7142V14.8182H89.5637V25H87.7142V20.6747H82.9962V25H81.1517ZM100.668 19.9091C100.668 21.0062 100.462 21.9458 100.051 22.728C99.6436 23.5069 99.0867 24.1035 98.3808 24.5178C97.6781 24.9321 96.881 25.1392 95.9894 25.1392C95.0979 25.1392 94.2991 24.9321 93.5931 24.5178C92.8905 24.1001 92.3337 23.5019 91.9227 22.723C91.515 21.9408 91.3112 21.0028 91.3112 19.9091C91.3112 18.812 91.515 17.8741 91.9227 17.0952C92.3337 16.313 92.8905 15.7147 93.5931 15.3004C94.2991 14.8861 95.0979 14.679 95.9894 14.679C96.881 14.679 97.6781 14.8861 98.3808 15.3004C99.0867 15.7147 99.6436 16.313 100.051 17.0952C100.462 17.8741 100.668 18.812 100.668 19.9091ZM98.8133 19.9091C98.8133 19.1368 98.6923 18.4856 98.4504 17.9553C98.2117 17.4216 97.8803 17.0189 97.4561 16.7472C97.0318 16.4721 96.5429 16.3345 95.9894 16.3345C95.4359 16.3345 94.9471 16.4721 94.5228 16.7472C94.0986 17.0189 93.7655 17.4216 93.5235 17.9553C93.2849 18.4856 93.1656 19.1368 93.1656 19.9091C93.1656 20.6813 93.2849 21.3343 93.5235 21.8679C93.7655 22.3982 94.0986 22.8009 94.5228 23.076C94.9471 23.3478 95.4359 23.4837 95.9894 23.4837C96.5429 23.4837 97.0318 23.3478 97.4561 23.076C97.8803 22.8009 98.2117 22.3982 98.4504 21.8679C98.6923 21.3343 98.8133 20.6813 98.8133 19.9091ZM102.411 25V14.8182H106.23C107.012 14.8182 107.668 14.964 108.198 15.2557C108.732 15.5473 109.135 15.9484 109.407 16.4588C109.682 16.9659 109.819 17.5426 109.819 18.1889C109.819 18.8419 109.682 19.4219 109.407 19.929C109.131 20.4361 108.725 20.8355 108.188 21.1271C107.652 21.4155 106.99 21.5597 106.205 21.5597H103.674V20.0433H105.956C106.414 20.0433 106.788 19.9638 107.08 19.8047C107.371 19.6456 107.587 19.4268 107.726 19.1484C107.869 18.87 107.94 18.5502 107.94 18.1889C107.94 17.8277 107.869 17.5095 107.726 17.2344C107.587 16.9593 107.37 16.7455 107.075 16.593C106.783 16.4373 106.407 16.3594 105.946 16.3594H104.256V25H102.411ZM123.261 14.8182V25H121.62L116.823 18.0646H116.738V25H114.894V14.8182H116.544L121.337 21.7585H121.427V14.8182H123.261ZM134.369 19.9091C134.369 21.0062 134.163 21.9458 133.752 22.728C133.345 23.5069 132.788 24.1035 132.082 24.5178C131.379 24.9321 130.582 25.1392 129.691 25.1392C128.799 25.1392 128 24.9321 127.294 24.5178C126.592 24.1001 126.035 23.5019 125.624 22.723C125.216 21.9408 125.012 21.0028 125.012 19.9091C125.012 18.812 125.216 17.8741 125.624 17.0952C126.035 16.313 126.592 15.7147 127.294 15.3004C128 14.8861 128.799 14.679 129.691 14.679C130.582 14.679 131.379 14.8861 132.082 15.3004C132.788 15.7147 133.345 16.313 133.752 17.0952C134.163 17.8741 134.369 18.812 134.369 19.9091ZM132.514 19.9091C132.514 19.1368 132.393 18.4856 132.152 17.9553C131.913 17.4216 131.581 17.0189 131.157 16.7472C130.733 16.4721 130.244 16.3345 129.691 16.3345C129.137 16.3345 128.648 16.4721 128.224 16.7472C127.8 17.0189 127.467 17.4216 127.225 17.9553C126.986 18.4856 126.867 19.1368 126.867 19.9091C126.867 20.6813 126.986 21.3343 127.225 21.8679C127.467 22.3982 127.8 22.8009 128.224 23.076C128.648 23.3478 129.137 23.4837 129.691 23.4837C130.244 23.4837 130.733 23.3478 131.157 23.076C131.581 22.8009 131.913 22.3982 132.152 21.8679C132.393 21.3343 132.514 20.6813 132.514 19.9091ZM137.996 25L135.122 14.8182H137.106L138.94 22.3004H139.035L140.994 14.8182H142.798L144.762 22.3054H144.851L146.686 14.8182H148.67L145.796 25H143.976L141.938 17.8558H141.859L139.815 25H137.996Z" fill="#826F66"/>
</svg>
