<svg width="273" height="113" viewBox="0 0 273 113" fill="none" xmlns="http://www.w3.org/2000/svg">
<path d="M1.40909 12.1818V0.54546H2.81818V5.72728H9.02273V0.54546H10.4318V12.1818H9.02273V6.97728H2.81818V12.1818H1.40909ZM15.6392 12.3864C15.0862 12.3864 14.5843 12.2822 14.1335 12.0739C13.6828 11.8617 13.3248 11.5568 13.0597 11.1591C12.7945 10.7576 12.6619 10.2727 12.6619 9.70455C12.6619 9.20455 12.7604 8.79925 12.9574 8.48864C13.1544 8.17425 13.4176 7.92804 13.7472 7.75001C14.0767 7.57197 14.4403 7.4394 14.8381 7.35228C15.2396 7.26137 15.643 7.1894 16.0483 7.13637C16.5786 7.06819 17.0085 7.01705 17.3381 6.98296C17.6714 6.94508 17.9138 6.88258 18.0653 6.79546C18.2206 6.70834 18.2983 6.55682 18.2983 6.34091V6.29546C18.2983 5.73485 18.1449 5.29925 17.8381 4.98864C17.535 4.67804 17.0748 4.52273 16.4574 4.52273C15.8172 4.52273 15.3153 4.66288 14.9517 4.94319C14.5881 5.22349 14.3324 5.52273 14.1847 5.84091L12.9119 5.38637C13.1392 4.85607 13.4422 4.44319 13.821 4.14773C14.2036 3.84849 14.6203 3.64016 15.071 3.52273C15.5256 3.40152 15.9725 3.34091 16.4119 3.34091C16.6922 3.34091 17.0142 3.37501 17.3778 3.44319C17.7453 3.50758 18.0994 3.64205 18.4403 3.8466C18.785 4.05114 19.071 4.35985 19.2983 4.77273C19.5256 5.18561 19.6392 5.73864 19.6392 6.43182V12.1818H18.2983V11H18.2301C18.1392 11.1894 17.9877 11.3921 17.7756 11.608C17.5634 11.8239 17.2813 12.0076 16.929 12.1591C16.5767 12.3106 16.1468 12.3864 15.6392 12.3864ZM15.8438 11.1818C16.3741 11.1818 16.821 11.0777 17.1847 10.8693C17.5521 10.661 17.8286 10.3921 18.0142 10.0625C18.2036 9.73296 18.2983 9.38637 18.2983 9.02273V7.79546C18.2415 7.86364 18.1165 7.92614 17.9233 7.98296C17.7339 8.03599 17.5142 8.08334 17.2642 8.12501C17.018 8.16288 16.7775 8.19698 16.5426 8.22728C16.3116 8.25379 16.1241 8.27652 15.9801 8.29546C15.6316 8.34091 15.3059 8.41478 15.0028 8.51705C14.7036 8.61554 14.4612 8.76516 14.2756 8.96591C14.0938 9.16288 14.0028 9.43182 14.0028 9.77273C14.0028 10.2386 14.1752 10.5909 14.5199 10.8296C14.8684 11.0644 15.3097 11.1818 15.8438 11.1818ZM23.4276 6.93182V12.1818H22.0866V3.45455H23.3821V4.81819H23.4957C23.7003 4.37501 24.0109 4.01895 24.4276 3.75001C24.8442 3.47728 25.3821 3.34091 26.0412 3.34091C26.6321 3.34091 27.1491 3.46213 27.5923 3.70455C28.0355 3.94319 28.3802 4.30682 28.6264 4.79546C28.8726 5.28031 28.9957 5.89394 28.9957 6.63637V12.1818H27.6548V6.72728C27.6548 6.04167 27.4768 5.50758 27.1207 5.12501C26.7647 4.73864 26.276 4.54546 25.6548 4.54546C25.2268 4.54546 24.8442 4.63826 24.5071 4.82387C24.1738 5.00948 23.9105 5.28031 23.7173 5.63637C23.5241 5.99243 23.4276 6.42425 23.4276 6.93182ZM34.7415 12.3636C34.0142 12.3636 33.3722 12.1799 32.8153 11.8125C32.2585 11.4413 31.8229 10.9186 31.5085 10.2443C31.1941 9.56629 31.0369 8.76516 31.0369 7.84091C31.0369 6.92425 31.1941 6.12879 31.5085 5.45455C31.8229 4.78031 32.2604 4.25948 32.821 3.89205C33.3816 3.52463 34.0294 3.34091 34.7642 3.34091C35.3324 3.34091 35.7813 3.43561 36.1108 3.62501C36.4441 3.81061 36.6979 4.02273 36.8722 4.26137C37.0502 4.49622 37.1884 4.6894 37.2869 4.84091H37.4006V0.54546H38.7415V12.1818H37.446V10.8409H37.2869C37.1884 11 37.0483 11.2008 36.8665 11.4432C36.6847 11.6818 36.4252 11.8958 36.0881 12.0852C35.7509 12.2708 35.3021 12.3636 34.7415 12.3636ZM34.9233 11.1591C35.4612 11.1591 35.9157 11.0189 36.2869 10.7386C36.6581 10.4546 36.9403 10.0625 37.1335 9.56251C37.3267 9.05872 37.4233 8.47728 37.4233 7.81819C37.4233 7.16667 37.3286 6.5966 37.1392 6.10796C36.9498 5.61554 36.6695 5.23296 36.2983 4.96023C35.9271 4.68372 35.4688 4.54546 34.9233 4.54546C34.3551 4.54546 33.8816 4.69129 33.5028 4.98296C33.1278 5.27084 32.8456 5.66288 32.6562 6.1591C32.4706 6.65152 32.3778 7.20455 32.3778 7.81819C32.3778 8.4394 32.4725 9.00379 32.6619 9.51137C32.8551 10.0152 33.1392 10.4167 33.5142 10.7159C33.893 11.0114 34.3627 11.1591 34.9233 11.1591ZM44.929 12.3636C44.1108 12.3636 43.4063 12.1705 42.8153 11.7841C42.2244 11.3977 41.7699 10.8655 41.4517 10.1875C41.1335 9.50948 40.9744 8.73485 40.9744 7.86364C40.9744 6.97728 41.1373 6.19508 41.4631 5.51705C41.7926 4.83523 42.2509 4.30304 42.8381 3.92046C43.429 3.5341 44.1184 3.34091 44.9062 3.34091C45.5199 3.34091 46.0729 3.45455 46.5653 3.68182C47.0578 3.9091 47.4612 4.22728 47.7756 4.63637C48.09 5.04546 48.285 5.52273 48.3608 6.06819H47.0199C46.9176 5.67046 46.6903 5.31819 46.3381 5.01137C45.9896 4.70076 45.5199 4.54546 44.929 4.54546C44.4063 4.54546 43.9479 4.68182 43.554 4.95455C43.1638 5.22349 42.8589 5.60417 42.6392 6.0966C42.4233 6.58523 42.3153 7.1591 42.3153 7.81819C42.3153 8.49243 42.4214 9.07955 42.6335 9.57955C42.8494 10.0796 43.1525 10.4678 43.5426 10.7443C43.9366 11.0208 44.3987 11.1591 44.929 11.1591C45.2775 11.1591 45.5938 11.0985 45.8778 10.9773C46.1619 10.8561 46.4025 10.6818 46.5994 10.4546C46.7964 10.2273 46.9366 9.95455 47.0199 9.63637H48.3608C48.285 10.1515 48.0975 10.6155 47.7983 11.0284C47.5028 11.4375 47.1108 11.7633 46.6222 12.0057C46.1373 12.2443 45.5729 12.3636 44.929 12.3636ZM50.321 12.1818V3.45455H51.6165V4.77273H51.7074C51.8665 4.34091 52.1544 3.99054 52.571 3.7216C52.9877 3.45266 53.4574 3.31819 53.9801 3.31819C54.0786 3.31819 54.2017 3.32008 54.3494 3.32387C54.4972 3.32766 54.6089 3.33334 54.6847 3.34091V4.70455C54.6392 4.69319 54.535 4.67614 54.3722 4.65341C54.2131 4.6269 54.0445 4.61364 53.8665 4.61364C53.4422 4.61364 53.0634 4.70266 52.7301 4.88069C52.4006 5.05493 52.1392 5.29735 51.946 5.60796C51.7566 5.91478 51.6619 6.26516 51.6619 6.6591V12.1818H50.321ZM58.8423 12.3864C58.2893 12.3864 57.7874 12.2822 57.3366 12.0739C56.8859 11.8617 56.5279 11.5568 56.2628 11.1591C55.9976 10.7576 55.8651 10.2727 55.8651 9.70455C55.8651 9.20455 55.9635 8.79925 56.1605 8.48864C56.3575 8.17425 56.6207 7.92804 56.9503 7.75001C57.2798 7.57197 57.6435 7.4394 58.0412 7.35228C58.4427 7.26137 58.8461 7.1894 59.2514 7.13637C59.7817 7.06819 60.2116 7.01705 60.5412 6.98296C60.8745 6.94508 61.117 6.88258 61.2685 6.79546C61.4238 6.70834 61.5014 6.55682 61.5014 6.34091V6.29546C61.5014 5.73485 61.348 5.29925 61.0412 4.98864C60.7382 4.67804 60.2779 4.52273 59.6605 4.52273C59.0204 4.52273 58.5185 4.66288 58.1548 4.94319C57.7912 5.22349 57.5355 5.52273 57.3878 5.84091L56.1151 5.38637C56.3423 4.85607 56.6454 4.44319 57.0241 4.14773C57.4067 3.84849 57.8234 3.64016 58.2741 3.52273C58.7287 3.40152 59.1757 3.34091 59.6151 3.34091C59.8954 3.34091 60.2173 3.37501 60.581 3.44319C60.9484 3.50758 61.3026 3.64205 61.6435 3.8466C61.9882 4.05114 62.2741 4.35985 62.5014 4.77273C62.7287 5.18561 62.8423 5.73864 62.8423 6.43182V12.1818H61.5014V11H61.4332C61.3423 11.1894 61.1908 11.3921 60.9787 11.608C60.7666 11.8239 60.4844 12.0076 60.1321 12.1591C59.7798 12.3106 59.3499 12.3864 58.8423 12.3864ZM59.0469 11.1818C59.5772 11.1818 60.0241 11.0777 60.3878 10.8693C60.7552 10.661 61.0317 10.3921 61.2173 10.0625C61.4067 9.73296 61.5014 9.38637 61.5014 9.02273V7.79546C61.4446 7.86364 61.3196 7.92614 61.1264 7.98296C60.937 8.03599 60.7173 8.08334 60.4673 8.12501C60.2211 8.16288 59.9806 8.19698 59.7457 8.22728C59.5147 8.25379 59.3272 8.27652 59.1832 8.29546C58.8348 8.34091 58.509 8.41478 58.206 8.51705C57.9067 8.61554 57.6643 8.76516 57.4787 8.96591C57.2969 9.16288 57.206 9.43182 57.206 9.77273C57.206 10.2386 57.3783 10.5909 57.723 10.8296C58.0715 11.0644 58.5128 11.1818 59.0469 11.1818ZM69.1761 3.45455V4.59091H64.4716V3.45455H69.1761ZM65.8807 12.1818V2.25001C65.8807 1.75001 65.9981 1.33334 66.233 1C66.4678 0.666671 66.7727 0.416671 67.1477 0.250005C67.5227 0.0833381 67.9186 4.76837e-06 68.3352 4.76837e-06C68.6648 4.76837e-06 68.9337 0.0265201 69.142 0.0795507C69.3504 0.132581 69.5057 0.181823 69.608 0.227278L69.2216 1.38637C69.1534 1.36364 69.0587 1.33523 68.9375 1.30114C68.8201 1.26705 68.6648 1.25 68.4716 1.25C68.0284 1.25 67.7083 1.36175 67.5114 1.58523C67.3182 1.80872 67.2216 2.13637 67.2216 2.56819V12.1818H65.8807ZM74.8509 3.45455V4.59091H70.3281V3.45455H74.8509ZM71.6463 1.36364H72.9872V9.68182C72.9872 10.0606 73.0421 10.3447 73.152 10.5341C73.2656 10.7197 73.4096 10.8447 73.5838 10.9091C73.7618 10.9697 73.9493 11 74.1463 11C74.294 11 74.4152 10.9924 74.5099 10.9773C74.6046 10.9583 74.6804 10.9432 74.7372 10.9318L75.0099 12.1364C74.919 12.1705 74.7921 12.2046 74.6293 12.2386C74.4664 12.2765 74.2599 12.2955 74.0099 12.2955C73.6312 12.2955 73.2599 12.214 72.8963 12.0511C72.5365 11.8883 72.2372 11.6402 71.9986 11.3068C71.7637 10.9735 71.6463 10.553 71.6463 10.0455V1.36364ZM80.4332 12.3636C79.5923 12.3636 78.867 12.178 78.2571 11.8068C77.651 11.4318 77.1832 10.9091 76.8537 10.2386C76.5279 9.5644 76.3651 8.78031 76.3651 7.88637C76.3651 6.99243 76.5279 6.20455 76.8537 5.52273C77.1832 4.83713 77.6416 4.30304 78.2287 3.92046C78.8196 3.5341 79.509 3.34091 80.2969 3.34091C80.7514 3.34091 81.2003 3.41667 81.6435 3.56819C82.0866 3.7197 82.4901 3.96591 82.8537 4.30682C83.2173 4.64394 83.5071 5.09091 83.723 5.64773C83.9389 6.20455 84.0469 6.89016 84.0469 7.70455V8.27273H77.3196V7.11364H82.6832C82.6832 6.62122 82.5848 6.18182 82.3878 5.79546C82.1946 5.4091 81.9181 5.10417 81.5582 4.88069C81.2022 4.6572 80.7817 4.54546 80.2969 4.54546C79.7628 4.54546 79.3007 4.67804 78.9105 4.94319C78.5241 5.20455 78.2268 5.54546 78.0185 5.96591C77.8101 6.38637 77.706 6.83713 77.706 7.31819V8.09091C77.706 8.75001 77.8196 9.30872 78.0469 9.76705C78.2779 10.2216 78.598 10.5682 79.0071 10.8068C79.4162 11.0417 79.8916 11.1591 80.4332 11.1591C80.7855 11.1591 81.1037 11.1099 81.3878 11.0114C81.6757 10.9091 81.9238 10.7576 82.1321 10.5568C82.3404 10.3523 82.5014 10.0985 82.6151 9.79546L83.9105 10.1591C83.7741 10.5985 83.545 10.9849 83.223 11.3182C82.901 11.6477 82.5033 11.9053 82.0298 12.0909C81.5563 12.2727 81.0241 12.3636 80.4332 12.3636ZM89.3821 12.3636C88.6548 12.3636 88.0128 12.1799 87.456 11.8125C86.8991 11.4413 86.4635 10.9186 86.1491 10.2443C85.8348 9.56629 85.6776 8.76516 85.6776 7.84091C85.6776 6.92425 85.8348 6.12879 86.1491 5.45455C86.4635 4.78031 86.901 4.25948 87.4616 3.89205C88.0223 3.52463 88.67 3.34091 89.4048 3.34091C89.973 3.34091 90.4219 3.43561 90.7514 3.62501C91.0848 3.81061 91.3385 4.02273 91.5128 4.26137C91.6908 4.49622 91.8291 4.6894 91.9276 4.84091H92.0412V0.54546H93.3821V12.1818H92.0866V10.8409H91.9276C91.8291 11 91.6889 11.2008 91.5071 11.4432C91.3253 11.6818 91.0658 11.8958 90.7287 12.0852C90.3916 12.2708 89.9427 12.3636 89.3821 12.3636ZM89.5639 11.1591C90.1018 11.1591 90.5563 11.0189 90.9276 10.7386C91.2988 10.4546 91.581 10.0625 91.7741 9.56251C91.9673 9.05872 92.0639 8.47728 92.0639 7.81819C92.0639 7.16667 91.9692 6.5966 91.7798 6.10796C91.5904 5.61554 91.3101 5.23296 90.9389 4.96023C90.5677 4.68372 90.1094 4.54546 89.5639 4.54546C88.9957 4.54546 88.5223 4.69129 88.1435 4.98296C87.7685 5.27084 87.4863 5.66288 87.2969 6.1591C87.1113 6.65152 87.0185 7.20455 87.0185 7.81819C87.0185 8.4394 87.1132 9.00379 87.3026 9.51137C87.4957 10.0152 87.7798 10.4167 88.1548 10.7159C88.5336 11.0114 89.0033 11.1591 89.5639 11.1591ZM100.524 12.1818V3.45455H101.865V12.1818H100.524ZM101.206 2.00001C100.945 2.00001 100.719 1.91099 100.53 1.73296C100.344 1.55493 100.251 1.34091 100.251 1.09091C100.251 0.840915 100.344 0.626899 100.53 0.448869C100.719 0.270839 100.945 0.181824 101.206 0.181824C101.467 0.181824 101.691 0.270839 101.876 0.448869C102.066 0.626899 102.161 0.840915 102.161 1.09091C102.161 1.34091 102.066 1.55493 101.876 1.73296C101.691 1.91099 101.467 2.00001 101.206 2.00001ZM105.662 6.93182V12.1818H104.321V3.45455H105.616V4.81819H105.73C105.935 4.37501 106.245 4.01895 106.662 3.75001C107.079 3.47728 107.616 3.34091 108.276 3.34091C108.866 3.34091 109.384 3.46213 109.827 3.70455C110.27 3.94319 110.615 4.30682 110.861 4.79546C111.107 5.28031 111.23 5.89394 111.23 6.63637V12.1818H109.889V6.72728C109.889 6.04167 109.711 5.50758 109.355 5.12501C108.999 4.73864 108.51 4.54546 107.889 4.54546C107.461 4.54546 107.079 4.63826 106.741 4.82387C106.408 5.00948 106.145 5.28031 105.952 5.63637C105.759 5.99243 105.662 6.42425 105.662 6.93182ZM118.839 0.54546L122.294 10.3409H122.43L125.885 0.54546H127.362L123.089 12.1818H121.635L117.362 0.54546H118.839ZM128.993 12.1818V3.45455H130.334V12.1818H128.993ZM129.675 2.00001C129.413 2.00001 129.188 1.91099 128.999 1.73296C128.813 1.55493 128.72 1.34091 128.72 1.09091C128.72 0.840915 128.813 0.626899 128.999 0.448869C129.188 0.270839 129.413 0.181824 129.675 0.181824C129.936 0.181824 130.16 0.270839 130.345 0.448869C130.535 0.626899 130.629 0.840915 130.629 1.09091C130.629 1.34091 130.535 1.55493 130.345 1.73296C130.16 1.91099 129.936 2.00001 129.675 2.00001ZM136.449 12.3636C135.608 12.3636 134.883 12.178 134.273 11.8068C133.667 11.4318 133.199 10.9091 132.869 10.2386C132.544 9.5644 132.381 8.78031 132.381 7.88637C132.381 6.99243 132.544 6.20455 132.869 5.52273C133.199 4.83713 133.657 4.30304 134.244 3.92046C134.835 3.5341 135.525 3.34091 136.312 3.34091C136.767 3.34091 137.216 3.41667 137.659 3.56819C138.102 3.7197 138.506 3.96591 138.869 4.30682C139.233 4.64394 139.523 5.09091 139.739 5.64773C139.955 6.20455 140.062 6.89016 140.062 7.70455V8.27273H133.335V7.11364H138.699C138.699 6.62122 138.6 6.18182 138.403 5.79546C138.21 5.4091 137.934 5.10417 137.574 4.88069C137.218 4.6572 136.797 4.54546 136.312 4.54546C135.778 4.54546 135.316 4.67804 134.926 4.94319C134.54 5.20455 134.242 5.54546 134.034 5.96591C133.826 6.38637 133.722 6.83713 133.722 7.31819V8.09091C133.722 8.75001 133.835 9.30872 134.062 9.76705C134.294 10.2216 134.614 10.5682 135.023 10.8068C135.432 11.0417 135.907 11.1591 136.449 11.1591C136.801 11.1591 137.119 11.1099 137.403 11.0114C137.691 10.9091 137.939 10.7576 138.148 10.5568C138.356 10.3523 138.517 10.0985 138.631 9.79546L139.926 10.1591C139.79 10.5985 139.561 10.9849 139.239 11.3182C138.917 11.6477 138.519 11.9053 138.045 12.0909C137.572 12.2727 137.04 12.3636 136.449 12.3636ZM145.898 3.45455V4.59091H141.375V3.45455H145.898ZM142.693 1.36364H144.034V9.68182C144.034 10.0606 144.089 10.3447 144.199 10.5341C144.313 10.7197 144.456 10.8447 144.631 10.9091C144.809 10.9697 144.996 11 145.193 11C145.341 11 145.462 10.9924 145.557 10.9773C145.652 10.9583 145.727 10.9432 145.784 10.9318L146.057 12.1364C145.966 12.1705 145.839 12.2046 145.676 12.2386C145.513 12.2765 145.307 12.2955 145.057 12.2955C144.678 12.2955 144.307 12.214 143.943 12.0511C143.583 11.8883 143.284 11.6402 143.045 11.3068C142.811 10.9735 142.693 10.553 142.693 10.0455V1.36364ZM161.824 0.54546V12.1818H160.46L154.119 3.04546H154.006V12.1818H152.597V0.54546H153.96L160.324 9.70455H160.438V0.54546H161.824ZM167.03 12.3864C166.477 12.3864 165.975 12.2822 165.524 12.0739C165.073 11.8617 164.715 11.5568 164.45 11.1591C164.185 10.7576 164.053 10.2727 164.053 9.70455C164.053 9.20455 164.151 8.79925 164.348 8.48864C164.545 8.17425 164.808 7.92804 165.138 7.75001C165.467 7.57197 165.831 7.4394 166.229 7.35228C166.63 7.26137 167.034 7.1894 167.439 7.13637C167.969 7.06819 168.399 7.01705 168.729 6.98296C169.062 6.94508 169.304 6.88258 169.456 6.79546C169.611 6.70834 169.689 6.55682 169.689 6.34091V6.29546C169.689 5.73485 169.536 5.29925 169.229 4.98864C168.926 4.67804 168.465 4.52273 167.848 4.52273C167.208 4.52273 166.706 4.66288 166.342 4.94319C165.979 5.22349 165.723 5.52273 165.575 5.84091L164.303 5.38637C164.53 4.85607 164.833 4.44319 165.212 4.14773C165.594 3.84849 166.011 3.64016 166.462 3.52273C166.916 3.40152 167.363 3.34091 167.803 3.34091C168.083 3.34091 168.405 3.37501 168.768 3.44319C169.136 3.50758 169.49 3.64205 169.831 3.8466C170.176 4.05114 170.462 4.35985 170.689 4.77273C170.916 5.18561 171.03 5.73864 171.03 6.43182V12.1818H169.689V11H169.621C169.53 11.1894 169.378 11.3921 169.166 11.608C168.954 11.8239 168.672 12.0076 168.32 12.1591C167.967 12.3106 167.537 12.3864 167.03 12.3864ZM167.234 11.1818C167.765 11.1818 168.212 11.0777 168.575 10.8693C168.943 10.661 169.219 10.3921 169.405 10.0625C169.594 9.73296 169.689 9.38637 169.689 9.02273V7.79546C169.632 7.86364 169.507 7.92614 169.314 7.98296C169.125 8.03599 168.905 8.08334 168.655 8.12501C168.409 8.16288 168.168 8.19698 167.933 8.22728C167.702 8.25379 167.515 8.27652 167.371 8.29546C167.022 8.34091 166.696 8.41478 166.393 8.51705C166.094 8.61554 165.852 8.76516 165.666 8.96591C165.484 9.16288 165.393 9.43182 165.393 9.77273C165.393 10.2386 165.566 10.5909 165.911 10.8296C166.259 11.0644 166.7 11.1818 167.234 11.1818ZM173.477 12.1818V3.45455H174.773V4.81819H174.886C175.068 4.35228 175.362 3.99054 175.767 3.73296C176.172 3.4716 176.659 3.34091 177.227 3.34091C177.803 3.34091 178.282 3.4716 178.665 3.73296C179.051 3.99054 179.352 4.35228 179.568 4.81819H179.659C179.883 4.36743 180.218 4.00948 180.665 3.74432C181.112 3.47538 181.648 3.34091 182.273 3.34091C183.053 3.34091 183.691 3.58523 184.188 4.07387C184.684 4.55872 184.932 5.3144 184.932 6.34091V12.1818H183.591V6.34091C183.591 5.69697 183.415 5.23675 183.062 4.96023C182.71 4.68372 182.295 4.54546 181.818 4.54546C181.205 4.54546 180.729 4.73107 180.392 5.10228C180.055 5.4697 179.886 5.93561 179.886 6.50001V12.1818H178.523V6.20455C178.523 5.70834 178.362 5.30872 178.04 5.00569C177.718 4.69887 177.303 4.54546 176.795 4.54546C176.447 4.54546 176.121 4.63826 175.818 4.82387C175.519 5.00948 175.277 5.26705 175.091 5.5966C174.909 5.92235 174.818 6.29925 174.818 6.72728V12.1818H173.477ZM198.065 5.4091L196.861 5.75001C196.785 5.54925 196.673 5.35417 196.526 5.16478C196.382 4.9716 196.185 4.81251 195.935 4.68751C195.685 4.56251 195.365 4.50001 194.974 4.50001C194.44 4.50001 193.995 4.62311 193.639 4.86932C193.287 5.11175 193.111 5.42046 193.111 5.79546C193.111 6.12879 193.232 6.39205 193.474 6.58523C193.717 6.77841 194.096 6.9394 194.611 7.06819L195.906 7.38637C196.687 7.57576 197.268 7.86554 197.651 8.25569C198.033 8.64205 198.224 9.14016 198.224 9.75001C198.224 10.25 198.08 10.697 197.793 11.0909C197.509 11.4849 197.111 11.7955 196.599 12.0227C196.088 12.25 195.493 12.3636 194.815 12.3636C193.925 12.3636 193.188 12.1705 192.605 11.7841C192.022 11.3977 191.652 10.8333 191.497 10.0909L192.77 9.77273C192.891 10.2424 193.12 10.5947 193.457 10.8296C193.798 11.0644 194.243 11.1818 194.793 11.1818C195.418 11.1818 195.914 11.0492 196.281 10.7841C196.652 10.5152 196.838 10.1932 196.838 9.81819C196.838 9.51516 196.732 9.26137 196.52 9.05682C196.308 8.84849 195.982 8.69319 195.543 8.59091L194.088 8.25001C193.289 8.06061 192.702 7.76705 192.327 7.36932C191.955 6.96781 191.77 6.46591 191.77 5.86364C191.77 5.37122 191.908 4.93561 192.185 4.55682C192.465 4.17804 192.846 3.88069 193.327 3.66478C193.812 3.44887 194.361 3.34091 194.974 3.34091C195.838 3.34091 196.516 3.53031 197.009 3.9091C197.505 4.28788 197.857 4.78788 198.065 5.4091ZM200.243 12.1818V3.45455H201.584V12.1818H200.243ZM200.925 2.00001C200.663 2.00001 200.438 1.91099 200.249 1.73296C200.063 1.55493 199.97 1.34091 199.97 1.09091C199.97 0.840915 200.063 0.626899 200.249 0.448869C200.438 0.270839 200.663 0.181824 200.925 0.181824C201.186 0.181824 201.41 0.270839 201.595 0.448869C201.785 0.626899 201.879 0.840915 201.879 1.09091C201.879 1.34091 201.785 1.55493 201.595 1.73296C201.41 1.91099 201.186 2.00001 200.925 2.00001ZM205.381 6.93182V12.1818H204.04V3.45455H205.335V4.81819H205.449C205.653 4.37501 205.964 4.01895 206.381 3.75001C206.797 3.47728 207.335 3.34091 207.994 3.34091C208.585 3.34091 209.102 3.46213 209.545 3.70455C209.989 3.94319 210.333 4.30682 210.58 4.79546C210.826 5.28031 210.949 5.89394 210.949 6.63637V12.1818H209.608V6.72728C209.608 6.04167 209.43 5.50758 209.074 5.12501C208.718 4.73864 208.229 4.54546 207.608 4.54546C207.18 4.54546 206.797 4.63826 206.46 4.82387C206.127 5.00948 205.864 5.28031 205.67 5.63637C205.477 5.99243 205.381 6.42425 205.381 6.93182ZM216.945 12.3636C216.126 12.3636 215.422 12.1705 214.831 11.7841C214.24 11.3977 213.786 10.8655 213.467 10.1875C213.149 9.50948 212.99 8.73485 212.99 7.86364C212.99 6.97728 213.153 6.19508 213.479 5.51705C213.808 4.83523 214.267 4.30304 214.854 3.92046C215.445 3.5341 216.134 3.34091 216.922 3.34091C217.536 3.34091 218.089 3.45455 218.581 3.68182C219.073 3.9091 219.477 4.22728 219.791 4.63637C220.106 5.04546 220.301 5.52273 220.376 6.06819H219.036C218.933 5.67046 218.706 5.31819 218.354 5.01137C218.005 4.70076 217.536 4.54546 216.945 4.54546C216.422 4.54546 215.964 4.68182 215.57 4.95455C215.179 5.22349 214.875 5.60417 214.655 6.0966C214.439 6.58523 214.331 7.1591 214.331 7.81819C214.331 8.49243 214.437 9.07955 214.649 9.57955C214.865 10.0796 215.168 10.4678 215.558 10.7443C215.952 11.0208 216.414 11.1591 216.945 11.1591C217.293 11.1591 217.609 11.0985 217.893 10.9773C218.178 10.8561 218.418 10.6818 218.615 10.4546C218.812 10.2273 218.952 9.95455 219.036 9.63637H220.376C220.301 10.1515 220.113 10.6155 219.814 11.0284C219.518 11.4375 219.126 11.7633 218.638 12.0057C218.153 12.2443 217.589 12.3636 216.945 12.3636ZM225.996 12.3636C225.155 12.3636 224.429 12.178 223.82 11.8068C223.214 11.4318 222.746 10.9091 222.416 10.2386C222.09 9.5644 221.928 8.78031 221.928 7.88637C221.928 6.99243 222.09 6.20455 222.416 5.52273C222.746 4.83713 223.204 4.30304 223.791 3.92046C224.382 3.5341 225.071 3.34091 225.859 3.34091C226.314 3.34091 226.763 3.41667 227.206 3.56819C227.649 3.7197 228.053 3.96591 228.416 4.30682C228.78 4.64394 229.07 5.09091 229.286 5.64773C229.501 6.20455 229.609 6.89016 229.609 7.70455V8.27273H222.882V7.11364H228.246C228.246 6.62122 228.147 6.18182 227.95 5.79546C227.757 5.4091 227.481 5.10417 227.121 4.88069C226.765 4.6572 226.344 4.54546 225.859 4.54546C225.325 4.54546 224.863 4.67804 224.473 4.94319C224.087 5.20455 223.789 5.54546 223.581 5.96591C223.373 6.38637 223.268 6.83713 223.268 7.31819V8.09091C223.268 8.75001 223.382 9.30872 223.609 9.76705C223.84 10.2216 224.161 10.5682 224.57 10.8068C224.979 11.0417 225.454 11.1591 225.996 11.1591C226.348 11.1591 226.666 11.1099 226.95 11.0114C227.238 10.9091 227.486 10.7576 227.695 10.5568C227.903 10.3523 228.064 10.0985 228.178 9.79546L229.473 10.1591C229.337 10.5985 229.107 10.9849 228.786 11.3182C228.464 11.6477 228.066 11.9053 227.592 12.0909C227.119 12.2727 226.587 12.3636 225.996 12.3636ZM240.217 0.54546V12.1818H238.808V2.02273H238.74L235.899 3.9091V2.47728L238.808 0.54546H240.217ZM247.428 12.3409C246.95 12.3333 246.473 12.2424 245.996 12.0682C245.518 11.8939 245.083 11.6004 244.689 11.1875C244.295 10.7708 243.979 10.2083 243.74 9.50001C243.501 8.78788 243.382 7.89394 243.382 6.81819C243.382 5.78788 243.479 4.87501 243.672 4.07955C243.865 3.28031 244.145 2.60796 244.513 2.06251C244.88 1.51326 245.323 1.0966 245.842 0.812505C246.365 0.528414 246.954 0.386369 247.609 0.386369C248.261 0.386369 248.84 0.517051 249.348 0.778415C249.859 1.03599 250.276 1.39584 250.598 1.85796C250.92 2.32008 251.128 2.85228 251.223 3.45455H249.837C249.708 2.93182 249.458 2.49811 249.087 2.15341C248.715 1.80872 248.223 1.63637 247.609 1.63637C246.708 1.63637 245.998 2.02841 245.479 2.81251C244.964 3.5966 244.704 4.69698 244.7 6.11364H244.791C245.003 5.79167 245.255 5.51705 245.547 5.28978C245.842 5.05872 246.168 4.88069 246.524 4.75569C246.88 4.63069 247.257 4.56819 247.655 4.56819C248.321 4.56819 248.931 4.73485 249.484 5.06819C250.037 5.39773 250.481 5.85417 250.814 6.43751C251.147 7.01705 251.314 7.68182 251.314 8.43182C251.314 9.15152 251.153 9.81061 250.831 10.4091C250.509 11.0038 250.056 11.4773 249.473 11.8296C248.893 12.178 248.212 12.3485 247.428 12.3409ZM247.428 11.0909C247.905 11.0909 248.333 10.9716 248.712 10.733C249.094 10.4943 249.395 10.1742 249.615 9.77273C249.839 9.37122 249.95 8.92425 249.95 8.43182C249.95 7.95076 249.842 7.51326 249.626 7.11932C249.414 6.7216 249.121 6.40531 248.746 6.17046C248.375 5.93561 247.95 5.81819 247.473 5.81819C247.113 5.81819 246.778 5.89016 246.467 6.0341C246.157 6.17425 245.884 6.36743 245.649 6.61364C245.418 6.85985 245.236 7.14205 245.104 7.46023C244.971 7.77463 244.905 8.10607 244.905 8.45455C244.905 8.91667 245.013 9.34849 245.229 9.75001C245.448 10.1515 245.748 10.4754 246.126 10.7216C246.509 10.9678 246.943 11.0909 247.428 11.0909ZM257.185 12.3409C256.518 12.3409 255.918 12.2083 255.384 11.9432C254.849 11.678 254.421 11.3144 254.099 10.8523C253.777 10.3902 253.601 9.86364 253.571 9.27273H254.935C254.988 9.79925 255.226 10.2349 255.651 10.5796C256.079 10.9205 256.59 11.0909 257.185 11.0909C257.662 11.0909 258.086 10.9792 258.457 10.7557C258.832 10.5322 259.126 10.2254 259.338 9.83523C259.554 9.44129 259.662 8.99622 259.662 8.50001C259.662 7.99243 259.55 7.53978 259.327 7.14205C259.107 6.74054 258.804 6.42425 258.418 6.19319C258.031 5.96213 257.59 5.8447 257.094 5.84091C256.738 5.83713 256.372 5.89205 255.997 6.00569C255.622 6.11554 255.313 6.25758 255.071 6.43182L253.753 6.27273L254.457 0.54546H260.503V1.79546H255.639L255.23 5.22728H255.298C255.537 5.03788 255.836 4.88069 256.196 4.75569C256.556 4.63069 256.931 4.56819 257.321 4.56819C258.033 4.56819 258.668 4.73864 259.224 5.07955C259.785 5.41667 260.224 5.87879 260.543 6.46591C260.865 7.05304 261.026 7.72349 261.026 8.47728C261.026 9.2197 260.859 9.88258 260.526 10.4659C260.196 11.0455 259.741 11.5038 259.162 11.8409C258.582 12.1742 257.923 12.3409 257.185 12.3409ZM267.078 12.3409C266.222 12.3409 265.493 12.108 264.891 11.6421C264.288 11.1724 263.828 10.4924 263.51 9.60228C263.192 8.70834 263.033 7.62879 263.033 6.36364C263.033 5.10607 263.192 4.0322 263.51 3.14205C263.832 2.24811 264.294 1.56629 264.896 1.0966C265.502 0.623111 266.23 0.386369 267.078 0.386369C267.927 0.386369 268.652 0.623111 269.254 1.0966C269.86 1.56629 270.322 2.24811 270.641 3.14205C270.963 4.0322 271.124 5.10607 271.124 6.36364C271.124 7.62879 270.964 8.70834 270.646 9.60228C270.328 10.4924 269.868 11.1724 269.266 11.6421C268.663 12.108 267.934 12.3409 267.078 12.3409ZM267.078 11.0909C267.927 11.0909 268.586 10.6818 269.055 9.86364C269.525 9.04546 269.76 7.87879 269.76 6.36364C269.76 5.35607 269.652 4.49811 269.436 3.78978C269.224 3.08144 268.917 2.54167 268.516 2.17046C268.118 1.79925 267.639 1.61364 267.078 1.61364C266.237 1.61364 265.58 2.02841 265.107 2.85796C264.633 3.68372 264.396 4.85228 264.396 6.36364C264.396 7.37122 264.502 8.22728 264.714 8.93182C264.927 9.63637 265.232 10.1724 265.629 10.5398C266.031 10.9072 266.514 11.0909 267.078 11.0909Z" fill="#FFFDFB"/>
<path d="M26.238 63.217L26.2732 61.8107C26.5545 61.7404 26.8943 61.676 27.2927 61.6174C28.0545 61.5119 28.6755 61.3596 29.156 61.1603C29.3201 60.8908 29.4255 60.633 29.4724 60.3869C29.5662 59.7307 29.613 58.7639 29.613 57.4865L29.5779 50.0158C29.5779 49.2424 29.5369 47.2209 29.4548 43.9514C29.4314 43.0724 29.3728 42.5275 29.2791 42.3166C29.2439 42.2463 29.1853 42.1877 29.1033 42.1408C28.9158 42.0119 28.5642 41.9357 28.0486 41.9123C27.8259 41.9006 27.2517 41.8361 26.3259 41.7189L26.2732 40.4709L30.2107 40.383L35.9587 40.1896L36.6443 40.1721C36.7849 40.1603 36.9255 40.1545 37.0662 40.1545C37.1834 40.1545 37.4939 40.1603 37.9978 40.1721H39.1228C40.0134 40.1603 40.9802 40.2951 42.0232 40.5764C42.3865 40.6701 42.867 40.8693 43.4646 41.174C44.0623 41.467 44.5779 41.8478 45.0115 42.3166C45.4568 42.7736 45.7849 43.2892 45.9959 43.8635C46.2068 44.4377 46.3123 45.0471 46.3123 45.6916C46.3123 46.4064 46.1541 47.051 45.8377 47.6252C45.5212 48.1877 45.0408 48.7092 44.3962 49.1896C44.0681 49.424 43.3123 49.8107 42.1287 50.3498C43.8982 50.7482 45.2459 51.4807 46.1716 52.5471C47.0974 53.6017 47.5603 54.7795 47.5603 56.0803C47.5603 56.8537 47.4138 57.6623 47.1209 58.506C46.9099 59.1389 46.5525 59.7248 46.0486 60.2639C45.3806 60.9787 44.6716 61.5178 43.9216 61.881C43.1834 62.2443 42.158 62.5432 40.8455 62.7775C40.1892 62.8947 39.1931 62.9533 37.8572 62.9533L34.8689 62.883C33.6033 62.883 32.0974 62.9416 30.3513 63.0588C29.8591 63.0822 28.488 63.1349 26.238 63.217ZM34.4295 49.8752C34.8982 49.9455 35.449 49.9807 36.0818 49.9807C37.8396 49.9807 39.1697 49.6584 40.072 49.0139C40.9744 48.3576 41.4255 47.2326 41.4255 45.6389C41.4255 44.5139 40.9978 43.5764 40.1423 42.8264C39.2869 42.0764 37.9978 41.7014 36.2752 41.7014C35.783 41.7014 35.1267 41.7658 34.3064 41.8947C34.3064 42.1642 34.3181 42.551 34.3416 43.0549C34.4002 44.051 34.4295 45.4455 34.4295 47.2385L34.4119 48.715C34.4119 48.9728 34.4177 49.3596 34.4295 49.8752ZM34.6404 61.0724C35.4021 61.3889 36.1111 61.5471 36.7673 61.5471C38.1033 61.5471 39.1931 61.3478 40.0369 60.9494C40.8806 60.5392 41.4959 59.9709 41.8826 59.2443C42.2693 58.5178 42.4627 57.6096 42.4627 56.5197C42.4627 55.3947 42.2517 54.4924 41.8298 53.8127C41.2439 52.8752 40.5349 52.2482 39.7029 51.9318C38.8709 51.6037 37.6228 51.4396 35.9587 51.4396C35.2205 51.4396 34.7107 51.4924 34.4295 51.5978V53.7599L34.4119 56.3615L34.4646 60.4045C34.4763 60.592 34.5349 60.8146 34.6404 61.0724ZM49.9847 63.0588L50.0198 61.8635C50.2425 61.7932 50.6351 61.7053 51.1976 61.5998C52.0999 61.424 52.6448 61.2658 52.8323 61.1252C53.0316 60.9846 53.2718 60.6447 53.553 60.1057L57.1038 50.8068L61.2698 39.8732C61.6566 39.8849 62.0257 39.8908 62.3773 39.8908H63.1683L63.3265 40.2072L66.3851 47.4494C67.0765 48.9846 67.6976 50.4787 68.2484 51.9318C68.7991 53.3732 69.2738 54.551 69.6722 55.465C69.9066 56.0158 70.2288 56.842 70.639 57.9435C70.8499 58.5412 71.1722 59.2912 71.6058 60.1935C71.8402 60.6857 72.0159 60.9728 72.1331 61.0549C72.3441 61.2307 72.6839 61.3478 73.1527 61.4064C73.6331 61.465 74.1488 61.5998 74.6995 61.8107C74.7581 62.1974 74.7874 62.4846 74.7874 62.6721C74.7874 62.7541 74.7816 62.883 74.7698 63.0588C73.9027 63.0588 72.9476 63.0178 71.9046 62.9357C70.8616 62.8537 69.9241 62.8127 69.0921 62.8127C68.1663 62.8127 67.4984 62.8244 67.0882 62.8478L64.0999 63.006L63.2386 63.0412C63.2386 62.631 63.2562 62.2385 63.2913 61.8635L65.2425 61.4416C65.8284 61.2892 66.1683 61.1721 66.262 61.09C66.3792 60.9728 66.4378 60.8381 66.4378 60.6857C66.4378 60.5334 66.4085 60.3752 66.3499 60.2111L65.6468 58.4885L64.2581 55.0432L57.5433 55.0256C57.2972 55.5881 56.7874 56.965 56.014 59.1564C55.7913 59.7775 55.68 60.1994 55.68 60.4221C55.68 60.7267 55.762 60.9435 55.9261 61.0724C56.1956 61.2951 56.7113 61.4533 57.473 61.5471C57.5784 61.5705 57.9945 61.6349 58.721 61.7404C58.7327 62.1623 58.7386 62.4553 58.7386 62.6193C58.7386 62.7482 58.7269 62.883 58.7034 63.0236C57.9769 63.0236 56.2425 62.924 53.5003 62.7248L52.7796 62.8478C51.9124 62.9885 51.0863 63.0588 50.3011 63.0588H49.9847ZM58.2464 53.1799C60.9886 53.215 62.6058 53.2326 63.098 53.2326L63.5374 53.215C63.1859 52.1721 62.7288 50.9592 62.1663 49.5764C61.6038 48.1818 61.1468 47.1213 60.7952 46.3947L58.2464 53.1799ZM77.3876 39.3283H78.4774C78.5595 39.4572 78.618 39.551 78.6532 39.6096C78.9813 40.1721 79.2333 40.5412 79.4091 40.717C79.5614 40.7639 80.3641 40.7873 81.8173 40.7873C82.7196 40.7873 83.5223 40.7814 84.2255 40.7697L84.577 40.717L86.704 40.6994L90.6766 40.7346H96.1083L97.1454 40.5764C97.2977 40.4709 97.4618 40.1896 97.6376 39.7326C97.6845 39.6271 97.7489 39.4807 97.8309 39.2932L98.6044 39.2756C98.7216 39.2756 98.8973 39.2814 99.1317 39.2932C99.1434 40.1017 99.1493 41.3205 99.1493 42.9494L99.1669 44.5139L99.1493 45.4103C99.1493 45.715 99.1259 45.9787 99.079 46.2014C98.5985 46.3537 98.1766 46.4474 97.8134 46.4826C97.5087 46.0256 97.1747 45.3635 96.8114 44.4963C96.4598 43.6291 96.2372 43.1486 96.1434 43.0549C96.0028 42.9025 95.8387 42.8029 95.6512 42.756C95.37 42.6974 94.1278 42.6682 91.9247 42.6682C91.5966 42.6682 91.1864 42.6916 90.6942 42.7385C90.6239 43.1955 90.5887 43.5705 90.5887 43.8635L90.6063 46.2189V51.3869L90.6766 56.9592L90.6591 59.2443C90.6591 60.0529 90.7294 60.6623 90.87 61.0724C91.0575 61.1545 91.4032 61.2307 91.9071 61.301C92.0009 61.3127 92.4345 61.4064 93.2079 61.5822C93.5595 61.6642 93.87 61.758 94.1395 61.8635C94.1981 62.2853 94.2274 62.5432 94.2274 62.6369C94.2274 62.7424 94.2098 62.8947 94.1747 63.0939C93.9169 63.1057 93.7059 63.1115 93.5419 63.1115C92.3348 63.1115 91.3095 63.0705 90.4657 62.9885C89.622 62.8947 88.0927 62.8478 85.8778 62.8478C85.5262 62.8478 84.495 62.9182 82.7841 63.0588C82.1161 63.1057 81.6825 63.1291 81.4833 63.1291C81.4716 62.9533 81.4598 62.8185 81.4481 62.7248L81.4305 62.3205V62.1799C81.6884 61.84 82.1747 61.5881 82.8895 61.424C84.1083 61.131 84.952 60.8674 85.4208 60.633C85.538 60.4103 85.6083 60.1174 85.6317 59.7541C85.7137 58.3478 85.7548 56.1096 85.7548 53.0392L85.6669 46.3947C85.6669 44.5666 85.6317 43.4592 85.5614 43.0724C85.538 42.967 85.497 42.8908 85.4384 42.8439C85.3798 42.7853 85.2977 42.7502 85.1923 42.7385C84.829 42.6916 83.6454 42.6682 81.6415 42.6682C80.5399 42.6682 79.8016 42.7736 79.4266 42.9846C78.9227 43.2775 78.1669 44.0744 77.1591 45.3752C76.8661 45.7502 76.6493 45.9377 76.5087 45.9377C75.9696 45.6564 75.6239 45.4279 75.4716 45.2521C75.8348 44.4904 76.3387 42.967 76.9833 40.6818C77.1708 40.0139 77.3055 39.5627 77.3876 39.3283ZM114.018 39.3283H115.107C115.189 39.4572 115.248 39.551 115.283 39.6096C115.611 40.1721 115.863 40.5412 116.039 40.717C116.191 40.7639 116.994 40.7873 118.447 40.7873C119.35 40.7873 120.152 40.7814 120.855 40.7697L121.207 40.717L123.334 40.6994L127.307 40.7346H132.738L133.775 40.5764C133.928 40.4709 134.092 40.1896 134.268 39.7326C134.314 39.6271 134.379 39.4807 134.461 39.2932L135.234 39.2756C135.352 39.2756 135.527 39.2814 135.762 39.2932C135.773 40.1017 135.779 41.3205 135.779 42.9494L135.797 44.5139L135.779 45.4103C135.779 45.715 135.756 45.9787 135.709 46.2014C135.229 46.3537 134.807 46.4474 134.443 46.4826C134.139 46.0256 133.805 45.3635 133.441 44.4963C133.09 43.6291 132.867 43.1486 132.773 43.0549C132.633 42.9025 132.469 42.8029 132.281 42.756C132 42.6974 130.758 42.6682 128.555 42.6682C128.227 42.6682 127.816 42.6916 127.324 42.7385C127.254 43.1955 127.219 43.5705 127.219 43.8635L127.236 46.2189V51.3869L127.307 56.9592L127.289 59.2443C127.289 60.0529 127.359 60.6623 127.5 61.0724C127.688 61.1545 128.033 61.2307 128.537 61.301C128.631 61.3127 129.064 61.4064 129.838 61.5822C130.189 61.6642 130.5 61.758 130.77 61.8635C130.828 62.2853 130.857 62.5432 130.857 62.6369C130.857 62.7424 130.84 62.8947 130.805 63.0939C130.547 63.1057 130.336 63.1115 130.172 63.1115C128.965 63.1115 127.939 63.0705 127.096 62.9885C126.252 62.8947 124.723 62.8478 122.508 62.8478C122.156 62.8478 121.125 62.9182 119.414 63.0588C118.746 63.1057 118.312 63.1291 118.113 63.1291C118.102 62.9533 118.09 62.8185 118.078 62.7248L118.061 62.3205V62.1799C118.318 61.84 118.805 61.5881 119.52 61.424C120.738 61.131 121.582 60.8674 122.051 60.633C122.168 60.4103 122.238 60.1174 122.262 59.7541C122.344 58.3478 122.385 56.1096 122.385 53.0392L122.297 46.3947C122.297 44.5666 122.262 43.4592 122.191 43.0724C122.168 42.967 122.127 42.8908 122.068 42.8439C122.01 42.7853 121.928 42.7502 121.822 42.7385C121.459 42.6916 120.275 42.6682 118.271 42.6682C117.17 42.6682 116.432 42.7736 116.057 42.9846C115.553 43.2775 114.797 44.0744 113.789 45.3752C113.496 45.7502 113.279 45.9377 113.139 45.9377C112.6 45.6564 112.254 45.4279 112.102 45.2521C112.465 44.4904 112.969 42.967 113.613 40.6818C113.801 40.0139 113.936 39.5627 114.018 39.3283ZM139.803 61.9865C140.108 61.8224 140.559 61.7053 141.157 61.6349C141.754 61.5529 142.294 61.424 142.774 61.2482C142.833 61.0139 142.868 60.8439 142.879 60.7385C142.903 60.5744 142.915 60.0119 142.915 59.051L142.897 55.131L142.967 53.0217L142.932 51.3869L142.967 50.4377C143.002 49.1603 143.02 47.965 143.02 46.8517C143.02 44.4142 142.991 42.8557 142.932 42.176L141.895 41.965C140.946 41.9064 140.313 41.8478 139.997 41.7892L139.961 40.7346L140.032 40.5412C140.618 40.4474 141.157 40.4006 141.649 40.4006C141.919 40.4006 142.463 40.3947 143.284 40.383C144.127 40.4533 144.585 40.4885 144.655 40.4885L145.586 40.4357L147.784 40.3303C149.155 40.1896 150.602 40.1193 152.126 40.1193C154.528 40.1193 156.438 40.7346 157.856 41.965C159.274 43.1838 159.983 44.5842 159.983 46.1662C159.983 47.3498 159.596 48.4279 158.823 49.4006C158.061 50.3615 156.883 51.0881 155.29 51.5803C155.43 51.8264 155.618 52.1135 155.852 52.4416C156.344 53.1447 156.743 53.7424 157.047 54.2346L159.86 58.7873C160.563 59.9943 161.02 60.7033 161.231 60.9142C161.454 61.1135 161.905 61.3361 162.585 61.5822C163.112 61.7814 163.516 61.9807 163.797 62.1799C163.868 62.3791 163.903 62.5549 163.903 62.7072C163.903 62.8127 163.897 62.9474 163.885 63.1115H163.411L163.059 63.1291L162.145 63.006H161.424C161.049 62.9474 160.586 62.9182 160.036 62.9182L158.278 62.9006C158.149 62.9006 157.739 62.9416 157.047 63.0236C156.731 63.0588 156.479 63.0881 156.292 63.1115L155.694 61.9514C155.202 61.0724 154.856 60.4162 154.657 59.9826C154.141 58.8459 153.256 57.0353 152.002 54.551C151.417 53.4025 151.006 52.7521 150.772 52.5998C150.42 52.3537 149.817 52.2307 148.961 52.2307C148.727 52.2307 148.329 52.2424 147.766 52.2658C147.731 52.6057 147.713 53.0099 147.713 53.4787L147.784 57.381L147.696 60.6857C148.024 60.8849 148.452 61.0373 148.979 61.1428C149.893 61.3303 150.678 61.5529 151.335 61.8107C151.335 62.3849 151.311 62.8185 151.264 63.1115C151.042 63.0998 150.901 63.0939 150.842 63.0939L150.122 63.1291C147.602 62.9064 146.108 62.7951 145.639 62.7951C145.335 62.7951 145.118 62.801 144.989 62.8127L142.563 62.9709C141.825 63.0529 141.151 63.0939 140.542 63.0939H139.786C139.762 62.801 139.751 62.6135 139.751 62.5314C139.751 62.4025 139.768 62.2209 139.803 61.9865ZM147.713 50.6135C148.276 50.6369 148.686 50.6486 148.944 50.6486C150.936 50.6486 152.348 50.2912 153.18 49.5764C154.012 48.8615 154.428 47.9064 154.428 46.7111C154.428 45.9728 154.323 45.2814 154.112 44.6369C153.913 43.9807 153.661 43.4943 153.356 43.1779C152.922 42.7209 152.354 42.3752 151.651 42.1408C151.135 41.965 150.309 41.8771 149.172 41.8771C148.633 41.8771 148.17 41.9064 147.784 41.965L147.766 42.299L147.784 44.6721L147.749 46.1135L147.766 48.0295C147.743 48.5685 147.725 49.2658 147.713 50.1213V50.6135ZM164.446 63.0588L164.482 61.8635C164.704 61.7932 165.097 61.7053 165.659 61.5998C166.562 61.424 167.107 61.2658 167.294 61.1252C167.493 60.9846 167.734 60.6447 168.015 60.1057L171.566 50.8068L175.732 39.8732C176.118 39.8849 176.487 39.8908 176.839 39.8908H177.63L177.788 40.2072L180.847 47.4494C181.538 48.9846 182.159 50.4787 182.71 51.9318C183.261 53.3732 183.735 54.551 184.134 55.465C184.368 56.0158 184.691 56.842 185.101 57.9435C185.312 58.5412 185.634 59.2912 186.068 60.1935C186.302 60.6857 186.478 60.9728 186.595 61.0549C186.806 61.2307 187.146 61.3478 187.614 61.4064C188.095 61.465 188.61 61.5998 189.161 61.8107C189.22 62.1974 189.249 62.4846 189.249 62.6721C189.249 62.7541 189.243 62.883 189.232 63.0588C188.364 63.0588 187.409 63.0178 186.366 62.9357C185.323 62.8537 184.386 62.8127 183.554 62.8127C182.628 62.8127 181.96 62.8244 181.55 62.8478L178.562 63.006L177.7 63.0412C177.7 62.631 177.718 62.2385 177.753 61.8635L179.704 61.4416C180.29 61.2892 180.63 61.1721 180.724 61.09C180.841 60.9728 180.9 60.8381 180.9 60.6857C180.9 60.5334 180.87 60.3752 180.812 60.2111L180.109 58.4885L178.72 55.0432L172.005 55.0256C171.759 55.5881 171.249 56.965 170.476 59.1564C170.253 59.7775 170.142 60.1994 170.142 60.4221C170.142 60.7267 170.224 60.9435 170.388 61.0724C170.657 61.2951 171.173 61.4533 171.935 61.5471C172.04 61.5705 172.456 61.6349 173.183 61.7404C173.194 62.1623 173.2 62.4553 173.2 62.6193C173.2 62.7482 173.189 62.883 173.165 63.0236C172.439 63.0236 170.704 62.924 167.962 62.7248L167.241 62.8478C166.374 62.9885 165.548 63.0588 164.763 63.0588H164.446ZM172.708 53.1799C175.45 53.215 177.068 53.2326 177.56 53.2326L177.999 53.215C177.648 52.1721 177.191 50.9592 176.628 49.5764C176.066 48.1818 175.609 47.1213 175.257 46.3947L172.708 53.1799ZM190.162 41.7014L190.091 40.4709H191.586L192.095 40.4533C192.799 40.4182 193.285 40.4006 193.554 40.4006C193.695 40.4006 194.105 40.4123 194.785 40.4357C194.937 40.4474 195.066 40.4533 195.172 40.4533C195.277 40.4533 195.646 40.4416 196.279 40.4182C196.912 40.3947 197.269 40.383 197.351 40.383C197.48 40.383 197.662 40.3889 197.896 40.4006C199.701 42.0412 201.172 43.4533 202.308 44.6369C203.445 45.8205 207.593 49.9631 214.754 57.0646V56.6252L214.683 54.5861C214.648 53.3908 214.601 52.4474 214.543 51.756C214.484 51.0529 214.449 50.2209 214.437 49.2599C214.425 48.2873 214.384 47.4084 214.314 46.6232C214.174 45.0881 214.103 44.2033 214.103 43.9689C214.091 43.2072 214.009 42.7443 213.857 42.5803C213.611 42.3224 213.049 42.1291 212.17 42.0002C211.525 41.8947 211.045 41.7599 210.728 41.5959L210.746 40.5588L211.203 40.506L214.666 40.4006L218.533 40.2951C218.791 40.2834 219.037 40.2775 219.271 40.2775L219.289 41.4201C219.019 41.5607 218.744 41.6662 218.463 41.7365C217.713 41.9123 217.279 42.0353 217.162 42.1057C216.564 42.4455 216.242 42.6506 216.195 42.7209C216.09 42.8615 216.037 43.0783 216.037 43.3713C216.037 43.4416 216.049 43.6877 216.072 44.1096C216.084 44.3205 216.09 44.8127 216.09 45.5861C216.101 47.2853 216.148 48.6271 216.23 49.6115C216.254 49.9279 216.271 50.2853 216.283 50.6838L216.476 56.8537C216.488 57.2873 216.494 57.592 216.494 57.7678V59.9299L216.547 60.8439L216.494 61.7932C216.541 62.2736 216.564 62.5607 216.564 62.6545V63.5861L214.543 63.6564L212.451 61.4943L208.179 57.258L205.191 54.2697L202.994 52.0197C201.564 50.6135 200.263 49.3771 199.091 48.3107L196.226 45.7267L196.384 52.2658C196.396 52.6642 196.402 53.0744 196.402 53.4963L196.384 54.7443L196.49 57.0471C196.525 58.008 196.59 59.051 196.683 60.176C196.707 60.4807 196.736 60.6974 196.771 60.8264C196.806 60.9435 196.877 61.1193 196.982 61.3537C197.439 61.5178 198.435 61.6408 199.97 61.7228C200.076 61.7463 200.228 61.7873 200.427 61.8459L200.498 63.2697L199.812 63.2873C199.437 63.2873 198.254 63.1994 196.261 63.0236C194.398 63.0471 193.156 63.0822 192.535 63.1291C191.914 63.176 191.574 63.1994 191.515 63.1994C191.375 63.1994 191.181 63.176 190.935 63.1291C190.912 62.8596 190.9 62.6252 190.9 62.426C190.9 62.2971 190.906 62.0861 190.918 61.7932C191.246 61.7346 191.515 61.7053 191.726 61.7053C191.797 61.7053 192.025 61.717 192.412 61.7404C193.396 61.7404 193.976 61.6701 194.152 61.5295C194.34 61.3771 194.445 60.9787 194.468 60.3342C194.55 58.4709 194.591 57.3342 194.591 56.924V55.9572L194.627 50.2443L194.574 46.676C194.562 45.3166 194.474 44.3732 194.31 43.8459C194.24 43.5764 194.105 43.342 193.906 43.1428C193.496 42.7209 193.039 42.4045 192.535 42.1935C192.23 42.0646 191.439 41.9006 190.162 41.7014ZM244.53 41.7892C244.612 42.1291 244.705 42.8029 244.811 43.8107C244.916 44.8068 244.969 45.5334 244.969 45.9904C244.969 46.1662 244.928 46.383 244.846 46.6408C244.342 46.6291 243.914 46.5822 243.563 46.5002C242.672 45.1291 242.045 44.2678 241.682 43.9162C241.002 43.2599 240.129 42.7033 239.063 42.2463C238.278 41.9064 237.375 41.7365 236.356 41.7365C234.399 41.7365 232.676 42.6154 231.188 44.3732C229.699 46.131 228.955 48.7443 228.955 52.2131C228.955 53.842 229.242 55.424 229.817 56.9592C230.403 58.4943 231.276 59.7014 232.436 60.5803C233.596 61.4474 234.961 61.881 236.531 61.881C237.293 61.881 238.102 61.7814 238.957 61.5822C239.391 61.4885 239.742 61.301 240.012 61.0197C240.199 60.8322 240.323 60.551 240.381 60.176C240.475 59.4963 240.522 58.5295 240.522 57.2756C240.522 56.0568 240.504 55.2189 240.469 54.7619C240.387 54.5861 240.305 54.4748 240.223 54.4279C240.153 54.3693 239.918 54.2814 239.52 54.1642L237.955 53.7424C237.615 53.6603 237.405 53.5607 237.323 53.4435C237.299 53.2912 237.287 53.1799 237.287 53.1096C237.287 52.9455 237.328 52.717 237.41 52.424C237.621 52.3537 237.768 52.3185 237.85 52.3185C239.127 52.3185 240.235 52.3654 241.172 52.4592C241.5 52.4826 241.858 52.4943 242.244 52.4943L245.022 52.4592L246.199 52.424C246.34 52.4123 246.733 52.424 247.377 52.4592C247.389 52.7639 247.395 53.0217 247.395 53.2326C247.395 53.3615 247.354 53.508 247.272 53.6721C247.073 53.7892 246.733 53.9357 246.252 54.1115C245.772 54.2873 245.502 54.4045 245.444 54.4631C245.35 54.5568 245.285 54.7033 245.25 54.9025C245.215 55.1017 245.198 55.799 245.198 56.9943C245.198 58.3771 245.192 59.2033 245.18 59.4728C245.133 60.34 245.11 60.8322 245.11 60.9494C245.11 61.383 245.051 61.6525 244.934 61.758C244.606 62.0861 243.586 62.4611 241.875 62.883C240.176 63.2932 238.196 63.4982 235.934 63.4982C234.352 63.4982 232.975 63.3752 231.803 63.1291C230.643 62.8713 229.653 62.4963 228.832 62.0041C227.731 61.3478 226.787 60.551 226.002 59.6135C225.217 58.676 224.631 57.6623 224.244 56.5724C223.705 55.0256 223.436 53.4846 223.436 51.9494C223.436 50.2267 223.834 48.4807 224.631 46.7111C225.217 45.4338 226.037 44.2853 227.092 43.2658C228.158 42.2346 229.489 41.4142 231.082 40.8049C232.676 40.1955 234.41 39.8908 236.285 39.8908C236.52 39.8908 236.901 39.9201 237.428 39.9787C238.858 39.9787 240.194 40.1603 241.436 40.5236C242.678 40.8752 243.709 41.2971 244.53 41.7892ZM15.1821 101.635C15.3579 101.588 15.7212 101.518 16.2719 101.424C17.3618 101.237 18.0766 100.985 18.4165 100.668C18.6274 100.469 18.7622 100.088 18.8208 99.5256C18.8325 99.3849 18.8735 97.5978 18.9438 94.1642L18.9262 92.2307L18.9438 89.8928L18.8735 83.8986L18.8911 83.1955C18.8911 82.8908 18.8091 82.6564 18.645 82.4924C18.563 82.4103 18.3344 82.3693 17.9594 82.3693C17.6548 82.3693 17.3032 82.4045 16.9048 82.4748C16.3891 82.4982 15.9262 82.5451 15.5161 82.6154C15.4458 82.6271 15.3344 82.6447 15.1821 82.6682L15.1645 81.1213C15.8559 80.8986 16.8462 80.6818 18.1352 80.4709C20.268 80.1193 22.893 79.9435 26.0102 79.9435C28.6118 79.9435 30.5161 80.09 31.7231 80.383C33.5512 80.84 35.0395 81.5197 36.188 82.4221C37.7231 83.6291 38.8716 85.0295 39.6333 86.6232C40.4067 88.2053 40.7934 89.9338 40.7934 91.8088C40.7934 94.176 40.2778 96.2092 39.2466 97.9084C38.2153 99.5959 36.7329 100.949 34.7993 101.969C33.4399 102.695 31.5942 103.059 29.2622 103.059L25.6587 102.901L24.604 102.848L23.1802 102.883L22.7583 102.848L21.2817 102.883L19.3305 102.865C19.2602 102.865 18.6626 102.906 17.5376 102.988C17.1626 103.012 16.6704 103.029 16.061 103.041C15.686 103.041 15.4048 103.047 15.2173 103.059C15.1938 102.801 15.1821 102.326 15.1821 101.635ZM23.7075 82.0529C23.6723 82.4162 23.6548 82.674 23.6548 82.8264L23.7075 85.8146L23.6723 88.4162C23.7075 89.2599 23.7251 89.9982 23.7251 90.631L23.7075 92.301L23.7427 95.0959L23.7075 96.8185C23.7075 98.424 24.0063 99.5139 24.604 100.088C25.4712 100.908 26.6665 101.319 28.1899 101.319C29.3501 101.319 30.2055 101.207 30.7563 100.985C31.9048 100.539 32.813 99.9474 33.4809 99.2092C34.1606 98.4709 34.6762 97.4279 35.0278 96.0803C35.3794 94.7209 35.5552 93.3205 35.5552 91.8791C35.5552 89.5119 35.1743 87.5783 34.4126 86.0783C33.6626 84.5783 32.6313 83.4533 31.3188 82.7033C30.0063 81.9416 28.5005 81.5607 26.8012 81.5607C25.6059 81.5607 24.5747 81.7248 23.7075 82.0529ZM45.292 103.076V101.811C45.5264 101.74 45.9131 101.641 46.4522 101.512C47.2139 101.324 47.7823 101.131 48.1573 100.932C48.3682 100.569 48.4737 100.065 48.4737 99.4201L48.4561 97.3459L48.4912 93.3381L48.4737 92.3889C48.5557 90.0685 48.5967 88.8732 48.5967 88.8029L48.5616 86.465L48.6143 85.5158L48.5264 83.5119L48.5088 82.756C48.4971 82.6389 48.4561 82.4514 48.3858 82.1935C47.9053 81.9709 47.126 81.8303 46.0479 81.7717C45.7901 81.7599 45.585 81.7424 45.4327 81.7189L45.3799 80.1721L50.4073 80.383C51.0284 80.4064 51.4151 80.4182 51.5674 80.4182C52.2588 80.4182 53.3662 80.3713 54.8897 80.2775C55.7452 80.2189 56.2842 80.1838 56.5069 80.1721C56.5186 80.3947 56.5245 80.5822 56.5245 80.7346C56.5245 80.9338 56.5127 81.1916 56.4893 81.508C56.0205 81.6721 55.4815 81.8303 54.8721 81.9826C54.2745 82.1232 53.7823 82.2697 53.3955 82.4221C53.3252 82.7267 53.2901 83.1662 53.2901 83.7404C53.2901 84.2443 53.3077 84.6545 53.3428 84.9709C53.3077 86.9514 53.2901 88.4748 53.2901 89.5412L53.3077 94.1818L53.2549 96.5373L53.2901 100.053L53.2725 100.721C53.2725 100.815 53.2959 100.949 53.3428 101.125C54.0577 101.278 54.708 101.383 55.294 101.442C55.3995 101.453 55.7569 101.5 56.3662 101.582C56.4131 101.934 56.4366 102.227 56.4366 102.461C56.4366 102.59 56.4307 102.789 56.419 103.059C56.2666 103.059 56.1495 103.065 56.0674 103.076C55.6924 103.1 55.4756 103.112 55.417 103.112C55.335 103.112 55.1827 103.094 54.96 103.059C54.7959 103.035 54.0166 102.953 52.6221 102.813L49.5108 102.778C48.8897 102.778 47.9873 102.836 46.8037 102.953C46.0303 103.024 45.5264 103.065 45.292 103.076ZM59.7574 81.7014L59.6871 80.4709H61.1812L61.691 80.4533C62.3941 80.4182 62.8805 80.4006 63.15 80.4006C63.2906 80.4006 63.7008 80.4123 64.3805 80.4357C64.5328 80.4474 64.6617 80.4533 64.7672 80.4533C64.8727 80.4533 65.2418 80.4416 65.8746 80.4182C66.5074 80.3947 66.8648 80.383 66.9469 80.383C67.0758 80.383 67.2574 80.3889 67.4918 80.4006C69.2965 82.0412 70.7672 83.4533 71.9039 84.6369C73.0406 85.8205 77.1891 89.9631 84.3492 97.0646V96.6252L84.2789 94.5861C84.2437 93.3908 84.1969 92.4474 84.1383 91.756C84.0797 91.0529 84.0445 90.2209 84.0328 89.2599C84.0211 88.2873 83.9801 87.4084 83.9098 86.6232C83.7691 85.0881 83.6988 84.2033 83.6988 83.9689C83.6871 83.2072 83.6051 82.7443 83.4527 82.5803C83.2066 82.3224 82.6441 82.1291 81.7652 82.0002C81.1207 81.8947 80.6402 81.7599 80.3238 81.5959L80.3414 80.5588L80.7984 80.506L84.2613 80.4006L88.1285 80.2951C88.3863 80.2834 88.6324 80.2775 88.8668 80.2775L88.8844 81.4201C88.6148 81.5607 88.3395 81.6662 88.0582 81.7365C87.3082 81.9123 86.8746 82.0353 86.7574 82.1057C86.1598 82.4455 85.8375 82.6506 85.7906 82.7209C85.6852 82.8615 85.6324 83.0783 85.6324 83.3713C85.6324 83.4416 85.6441 83.6877 85.6676 84.1096C85.6793 84.3205 85.6852 84.8127 85.6852 85.5861C85.6969 87.2853 85.7437 88.6271 85.8258 89.6115C85.8492 89.9279 85.8668 90.2853 85.8785 90.6838L86.0719 96.8537C86.0836 97.2873 86.0895 97.592 86.0895 97.7678V99.9299L86.1422 100.844L86.0895 101.793C86.1363 102.274 86.1598 102.561 86.1598 102.654V103.586L84.1383 103.656L82.0465 101.494L77.775 97.258L74.7867 94.2697L72.5895 92.0197C71.1598 90.6135 69.859 89.3771 68.6871 88.3107L65.8219 85.7267L65.9801 92.2658C65.9918 92.6642 65.9977 93.0744 65.9977 93.4963L65.9801 94.7443L66.0855 97.0471C66.1207 98.008 66.1852 99.051 66.2789 100.176C66.3023 100.481 66.3316 100.697 66.3668 100.826C66.402 100.944 66.4723 101.119 66.5777 101.354C67.0348 101.518 68.0309 101.641 69.566 101.723C69.6715 101.746 69.8238 101.787 70.023 101.846L70.0934 103.27L69.4078 103.287C69.0328 103.287 67.8492 103.199 65.857 103.024C63.9937 103.047 62.7516 103.082 62.1305 103.129C61.5094 103.176 61.1695 103.199 61.1109 103.199C60.9703 103.199 60.777 103.176 60.5309 103.129C60.5074 102.86 60.4957 102.625 60.4957 102.426C60.4957 102.297 60.5016 102.086 60.5133 101.793C60.8414 101.735 61.1109 101.705 61.3219 101.705C61.3922 101.705 61.6207 101.717 62.0074 101.74C62.9918 101.74 63.5719 101.67 63.7477 101.529C63.9352 101.377 64.0406 100.979 64.0641 100.334C64.1461 98.4709 64.1871 97.3342 64.1871 96.924V95.9572L64.2223 90.2443L64.1695 86.676C64.1578 85.3166 64.0699 84.3732 63.9059 83.8459C63.8355 83.5764 63.7008 83.342 63.5016 83.1428C63.0914 82.7209 62.6344 82.4045 62.1305 82.1935C61.8258 82.0646 61.0348 81.9006 59.7574 81.7014ZM91.5724 81.7014L91.5021 80.4709H92.9962L93.506 80.4533C94.2091 80.4182 94.6955 80.4006 94.965 80.4006C95.1056 80.4006 95.5158 80.4123 96.1955 80.4357C96.3478 80.4474 96.4767 80.4533 96.5822 80.4533C96.6877 80.4533 97.0568 80.4416 97.6896 80.4182C98.3224 80.3947 98.6798 80.383 98.7619 80.383C98.8908 80.383 99.0724 80.3889 99.3068 80.4006C101.111 82.0412 102.582 83.4533 103.719 84.6369C104.856 85.8205 109.004 89.9631 116.164 97.0646V96.6252L116.094 94.5861C116.059 93.3908 116.012 92.4474 115.953 91.756C115.895 91.0529 115.86 90.2209 115.848 89.2599C115.836 88.2873 115.795 87.4084 115.725 86.6232C115.584 85.0881 115.514 84.2033 115.514 83.9689C115.502 83.2072 115.42 82.7443 115.268 82.5803C115.022 82.3224 114.459 82.1291 113.58 82.0002C112.936 81.8947 112.455 81.7599 112.139 81.5959L112.156 80.5588L112.613 80.506L116.076 80.4006L119.944 80.2951C120.201 80.2834 120.447 80.2775 120.682 80.2775L120.699 81.4201C120.43 81.5607 120.154 81.6662 119.873 81.7365C119.123 81.9123 118.69 82.0353 118.572 82.1057C117.975 82.4455 117.652 82.6506 117.606 82.7209C117.5 82.8615 117.447 83.0783 117.447 83.3713C117.447 83.4416 117.459 83.6877 117.483 84.1096C117.494 84.3205 117.5 84.8127 117.5 85.5861C117.512 87.2853 117.559 88.6271 117.641 89.6115C117.664 89.9279 117.682 90.2853 117.694 90.6838L117.887 96.8537C117.899 97.2873 117.904 97.592 117.904 97.7678V99.9299L117.957 100.844L117.904 101.793C117.951 102.274 117.975 102.561 117.975 102.654V103.586L115.953 103.656L113.861 101.494L109.59 97.258L106.602 94.2697L104.404 92.0197C102.975 90.6135 101.674 89.3771 100.502 88.3107L97.6369 85.7267L97.7951 92.2658C97.8068 92.6642 97.8127 93.0744 97.8127 93.4963L97.7951 94.7443L97.9005 97.0471C97.9357 98.008 98.0002 99.051 98.0939 100.176C98.1173 100.481 98.1466 100.697 98.1818 100.826C98.2169 100.944 98.2873 101.119 98.3927 101.354C98.8498 101.518 99.8459 101.641 101.381 101.723C101.486 101.746 101.639 101.787 101.838 101.846L101.908 103.27L101.223 103.287C100.848 103.287 99.6642 103.199 97.672 103.024C95.8087 103.047 94.5666 103.082 93.9455 103.129C93.3244 103.176 92.9845 103.199 92.9259 103.199C92.7853 103.199 92.5919 103.176 92.3459 103.129C92.3224 102.86 92.3107 102.625 92.3107 102.426C92.3107 102.297 92.3166 102.086 92.3283 101.793C92.6564 101.735 92.9259 101.705 93.1369 101.705C93.2072 101.705 93.4357 101.717 93.8224 101.74C94.8068 101.74 95.3869 101.67 95.5627 101.529C95.7502 101.377 95.8556 100.979 95.8791 100.334C95.9611 98.4709 96.0021 97.3342 96.0021 96.924V95.9572L96.0373 90.2443L95.9845 86.676C95.9728 85.3166 95.8849 84.3732 95.7209 83.8459C95.6505 83.5764 95.5158 83.342 95.3166 83.1428C94.9064 82.7209 94.4494 82.4045 93.9455 82.1935C93.6408 82.0646 92.8498 81.9006 91.5724 81.7014ZM123.915 80.3127C124.583 80.3478 125.163 80.4006 125.655 80.4709C126.581 80.5998 127.653 80.6642 128.872 80.6642C129.294 80.6642 130.378 80.6291 132.124 80.5588C134.737 80.4533 137.098 80.4006 139.208 80.4006L142.389 80.3654C143.104 80.3654 144.159 80.4533 145.553 80.6291C145.764 80.8635 145.87 81.1799 145.87 81.5783V85.1994L145.905 85.9201C145.905 85.9904 145.899 86.0959 145.887 86.2365L145.167 86.2717C145.073 86.2717 144.874 86.2599 144.569 86.2365C144.464 86.0021 144.323 85.6564 144.147 85.1994L143.444 83.9514C143.175 83.424 142.8 82.8849 142.319 82.3342C142.026 82.2521 141.651 82.2053 141.194 82.1935C141.077 82.1818 140.719 82.1525 140.122 82.1057C139.032 82.0119 137.86 81.965 136.606 81.965C135.176 81.965 133.899 81.9885 132.774 82.0353C132.739 82.3283 132.721 83.4826 132.721 85.4982L132.757 88.4514V90.6662C133.05 90.7014 133.301 90.7189 133.512 90.7189C135.61 90.7189 137.104 90.6779 137.995 90.5959C138.885 90.5139 139.436 90.4025 139.647 90.2619C139.858 90.1096 140.046 89.8517 140.21 89.4885C140.315 89.2307 140.52 88.3693 140.825 86.9045L141.053 86.8869L142.073 86.9045C142.12 87.9474 142.143 88.7385 142.143 89.2775C142.143 90.508 142.132 91.299 142.108 91.6506C142.096 92.0021 142.091 92.2775 142.091 92.4767C142.091 92.7932 142.108 93.3029 142.143 94.006C142.178 94.6974 142.196 95.2131 142.196 95.5529V95.9396H140.948C140.901 95.7521 140.813 95.3654 140.684 94.7795C140.45 93.6896 140.239 93.0099 140.051 92.7404C139.911 92.5295 139.676 92.3713 139.348 92.2658C139.114 92.1838 138.247 92.1428 136.747 92.1428C134.977 92.1428 133.647 92.1896 132.757 92.2834C132.745 92.5881 132.739 92.7873 132.739 92.881C132.739 94.2756 132.762 95.4357 132.809 96.3615L132.774 100.158C132.774 100.604 132.932 100.908 133.249 101.072C133.729 101.319 135.2 101.442 137.661 101.442C139.29 101.442 140.673 101.319 141.809 101.072C142.594 100.897 143.286 100.504 143.884 99.8947C144.68 99.1096 145.342 98.008 145.87 96.59C146.233 96.5549 146.532 96.5373 146.766 96.5373C146.895 96.5373 147.089 96.5432 147.346 96.5549C147.311 96.8478 147.282 97.0939 147.259 97.2932L147.153 97.8205L146.503 101.143L146.186 103.147C145.425 103.182 144.821 103.199 144.376 103.199C143.719 103.199 141.967 103.141 139.12 103.024C137.116 102.942 134.702 102.901 131.878 102.901C130.471 102.901 128.743 102.959 126.692 103.076H125.954L123.827 103.147V101.934C124.05 101.875 124.495 101.811 125.163 101.74C126.382 101.6 127.225 101.412 127.694 101.178C127.823 100.838 127.887 100.41 127.887 99.8947C127.887 99.6955 127.882 99.3557 127.87 98.8752L127.887 98.3303L127.835 91.7033L127.852 89.717L127.764 86.9045L127.782 84.9182L127.624 82.7385C127.624 82.6799 127.612 82.5627 127.589 82.3869C127.471 82.258 127.296 82.176 127.061 82.1408C126.932 82.1174 126.757 82.0822 126.534 82.0353C125.866 81.8947 125.221 81.8127 124.6 81.7892C124.378 81.7775 124.12 81.7541 123.827 81.7189L123.915 80.3127ZM151.634 101.987C151.939 101.822 152.39 101.705 152.988 101.635C153.585 101.553 154.124 101.424 154.605 101.248C154.663 101.014 154.699 100.844 154.71 100.738C154.734 100.574 154.745 100.012 154.745 99.051L154.728 95.131L154.798 93.0217L154.763 91.3869L154.798 90.4377C154.833 89.1603 154.851 87.965 154.851 86.8517C154.851 84.4142 154.822 82.8557 154.763 82.176L153.726 81.965C152.777 81.9064 152.144 81.8478 151.827 81.7892L151.792 80.7346L151.863 80.5412C152.449 80.4474 152.988 80.4006 153.48 80.4006C153.749 80.4006 154.294 80.3947 155.115 80.383C155.958 80.4533 156.415 80.4885 156.486 80.4885L157.417 80.4357L159.615 80.3303C160.986 80.1896 162.433 80.1193 163.956 80.1193C166.359 80.1193 168.269 80.7346 169.687 81.965C171.105 83.1838 171.814 84.5842 171.814 86.1662C171.814 87.3498 171.427 88.4279 170.654 89.4006C169.892 90.3615 168.714 91.0881 167.12 91.5803C167.261 91.8264 167.449 92.1135 167.683 92.4416C168.175 93.1447 168.574 93.7424 168.878 94.2346L171.691 98.7873C172.394 99.9943 172.851 100.703 173.062 100.914C173.284 101.113 173.736 101.336 174.415 101.582C174.943 101.781 175.347 101.981 175.628 102.18C175.699 102.379 175.734 102.555 175.734 102.707C175.734 102.813 175.728 102.947 175.716 103.112H175.241L174.89 103.129L173.976 103.006H173.255C172.88 102.947 172.417 102.918 171.866 102.918L170.109 102.901C169.98 102.901 169.57 102.942 168.878 103.024C168.562 103.059 168.31 103.088 168.122 103.112L167.525 101.951C167.033 101.072 166.687 100.416 166.488 99.9826C165.972 98.8459 165.087 97.0353 163.833 94.551C163.247 93.4025 162.837 92.7521 162.603 92.5998C162.251 92.3537 161.648 92.2307 160.792 92.2307C160.558 92.2307 160.159 92.2424 159.597 92.2658C159.562 92.6057 159.544 93.0099 159.544 93.4787L159.615 97.381L159.527 100.686C159.855 100.885 160.283 101.037 160.81 101.143C161.724 101.33 162.509 101.553 163.165 101.811C163.165 102.385 163.142 102.819 163.095 103.112C162.872 103.1 162.732 103.094 162.673 103.094L161.952 103.129C159.433 102.906 157.939 102.795 157.47 102.795C157.165 102.795 156.949 102.801 156.82 102.813L154.394 102.971C153.656 103.053 152.982 103.094 152.372 103.094H151.616C151.593 102.801 151.581 102.613 151.581 102.531C151.581 102.403 151.599 102.221 151.634 101.987ZM159.544 90.6135C160.107 90.6369 160.517 90.6486 160.775 90.6486C162.767 90.6486 164.179 90.2912 165.011 89.5764C165.843 88.8615 166.259 87.9064 166.259 86.7111C166.259 85.9728 166.154 85.2814 165.943 84.6369C165.743 83.9807 165.491 83.4943 165.187 83.1779C164.753 82.7209 164.185 82.3752 163.482 82.1408C162.966 81.965 162.14 81.8771 161.003 81.8771C160.464 81.8771 160.001 81.9064 159.615 81.965L159.597 82.299L159.615 84.6721L159.579 86.1135L159.597 88.0295C159.574 88.5685 159.556 89.2658 159.544 90.1213V90.6135ZM202.028 80.8224C202.145 81.2209 202.25 81.8244 202.344 82.633C202.485 83.84 202.555 84.7775 202.555 85.4455C202.555 85.6564 202.532 85.8849 202.485 86.131L202.309 86.1838L201.043 86.0959L200.832 86.0607C200.317 84.5139 199.801 83.465 199.286 82.9142C198.395 81.9767 197.346 81.508 196.139 81.508C194.991 81.508 194.077 81.8127 193.397 82.4221C192.729 83.0197 192.395 83.7639 192.395 84.6545C192.395 85.4045 192.729 86.1252 193.397 86.8166C194.053 87.508 195.448 88.1701 197.58 88.8029C198.295 89.0139 199.157 89.3537 200.164 89.8224C201.184 90.2912 201.957 90.801 202.485 91.3517C203.188 92.0783 203.668 92.7814 203.926 93.4611C204.196 94.1291 204.33 94.967 204.33 95.9748C204.33 97.0764 204.125 98.1603 203.715 99.2267C203.493 99.7892 203.135 100.322 202.643 100.826C202.291 101.178 201.746 101.594 201.008 102.074C200.27 102.543 199.502 102.883 198.705 103.094C197.92 103.305 196.907 103.41 195.664 103.41C194.844 103.41 193.866 103.293 192.729 103.059L190.62 102.444C190.034 102.279 189.664 102.133 189.512 102.004C189.454 101.957 189.401 101.846 189.354 101.67V101.477C189.354 101.348 189.325 100.545 189.266 99.0685C189.243 98.3068 189.231 97.7678 189.231 97.4514V96.7834L190.848 96.7482C191.411 98.049 191.774 98.8342 191.938 99.1037C192.301 99.7014 192.7 100.188 193.133 100.563C193.579 100.926 194.106 101.219 194.715 101.442C195.325 101.653 195.987 101.758 196.702 101.758C197.334 101.758 198.032 101.623 198.793 101.354C199.555 101.084 200.164 100.645 200.621 100.035C201.09 99.4142 201.325 98.7521 201.325 98.049C201.325 97.1818 200.92 96.3791 200.112 95.6408C199.62 95.1838 198.295 94.5744 196.139 93.8127C193.983 93.051 192.489 92.3713 191.657 91.7736C190.825 91.176 190.168 90.3791 189.688 89.383C189.207 88.3752 188.967 87.4084 188.967 86.4826C188.967 84.6193 189.635 83.0373 190.971 81.7365C192.307 80.4357 194.276 79.7853 196.877 79.7853C197.44 79.7853 198.272 79.8849 199.373 80.0842C200.041 80.2014 200.926 80.4474 202.028 80.8224ZM207.722 80.3127C208.39 80.3478 208.97 80.4006 209.462 80.4709C210.388 80.5998 211.46 80.6642 212.679 80.6642C213.101 80.6642 214.185 80.6291 215.931 80.5588C218.544 80.4533 220.905 80.4006 223.015 80.4006L226.196 80.3654C226.911 80.3654 227.966 80.4533 229.36 80.6291C229.571 80.8635 229.677 81.1799 229.677 81.5783V85.1994L229.712 85.9201C229.712 85.9904 229.706 86.0959 229.694 86.2365L228.974 86.2717C228.88 86.2717 228.681 86.2599 228.376 86.2365C228.27 86.0021 228.13 85.6564 227.954 85.1994L227.251 83.9514C226.981 83.424 226.606 82.8849 226.126 82.3342C225.833 82.2521 225.458 82.2053 225.001 82.1935C224.884 82.1818 224.526 82.1525 223.929 82.1057C222.839 82.0119 221.667 81.965 220.413 81.965C218.983 81.965 217.706 81.9885 216.581 82.0353C216.546 82.3283 216.528 83.4826 216.528 85.4982L216.563 88.4514V90.6662C216.856 90.7014 217.108 90.7189 217.319 90.7189C219.417 90.7189 220.911 90.6779 221.802 90.5959C222.692 90.5139 223.243 90.4025 223.454 90.2619C223.665 90.1096 223.853 89.8517 224.017 89.4885C224.122 89.2307 224.327 88.3693 224.632 86.9045L224.86 86.8869L225.88 86.9045C225.927 87.9474 225.95 88.7385 225.95 89.2775C225.95 90.508 225.938 91.299 225.915 91.6506C225.903 92.0021 225.897 92.2775 225.897 92.4767C225.897 92.7932 225.915 93.3029 225.95 94.006C225.985 94.6974 226.003 95.2131 226.003 95.5529V95.9396H224.755C224.708 95.7521 224.62 95.3654 224.491 94.7795C224.257 93.6896 224.046 93.0099 223.858 92.7404C223.718 92.5295 223.483 92.3713 223.155 92.2658C222.921 92.1838 222.054 92.1428 220.554 92.1428C218.784 92.1428 217.454 92.1896 216.563 92.2834C216.552 92.5881 216.546 92.7873 216.546 92.881C216.546 94.2756 216.569 95.4357 216.616 96.3615L216.581 100.158C216.581 100.604 216.739 100.908 217.056 101.072C217.536 101.319 219.007 101.442 221.468 101.442C223.097 101.442 224.479 101.319 225.616 101.072C226.401 100.897 227.093 100.504 227.69 99.8947C228.487 99.1096 229.149 98.008 229.677 96.59C230.04 96.5549 230.339 96.5373 230.573 96.5373C230.702 96.5373 230.895 96.5432 231.153 96.5549C231.118 96.8478 231.089 97.0939 231.065 97.2932L230.96 97.8205L230.31 101.143L229.993 103.147C229.231 103.182 228.628 103.199 228.183 103.199C227.526 103.199 225.774 103.141 222.927 103.024C220.923 102.942 218.509 102.901 215.685 102.901C214.278 102.901 212.55 102.959 210.499 103.076H209.761L207.634 103.147V101.934C207.856 101.875 208.302 101.811 208.97 101.74C210.188 101.6 211.032 101.412 211.501 101.178C211.63 100.838 211.694 100.41 211.694 99.8947C211.694 99.6955 211.688 99.3557 211.677 98.8752L211.694 98.3303L211.642 91.7033L211.659 89.717L211.571 86.9045L211.589 84.9182L211.431 82.7385C211.431 82.6799 211.419 82.5627 211.395 82.3869C211.278 82.258 211.103 82.176 210.868 82.1408C210.739 82.1174 210.563 82.0822 210.341 82.0353C209.673 81.8947 209.028 81.8127 208.407 81.7892C208.185 81.7775 207.927 81.7541 207.634 81.7189L207.722 80.3127ZM235.845 79.3283H236.935C237.017 79.4572 237.076 79.551 237.111 79.6096C237.439 80.1721 237.691 80.5412 237.867 80.717C238.019 80.7639 238.822 80.7873 240.275 80.7873C241.177 80.7873 241.98 80.7814 242.683 80.7697L243.035 80.717L245.162 80.6994L249.134 80.7346H254.566L255.603 80.5764C255.755 80.4709 255.919 80.1896 256.095 79.7326C256.142 79.6271 256.207 79.4807 256.289 79.2932L257.062 79.2756C257.179 79.2756 257.355 79.2814 257.589 79.2932C257.601 80.1017 257.607 81.3205 257.607 82.9494L257.625 84.5139L257.607 85.4103C257.607 85.715 257.584 85.9787 257.537 86.2014C257.056 86.3537 256.634 86.4474 256.271 86.4826C255.966 86.0256 255.632 85.3635 255.269 84.4963C254.918 83.6291 254.695 83.1486 254.601 83.0549C254.46 82.9025 254.296 82.8029 254.109 82.756C253.828 82.6974 252.585 82.6682 250.382 82.6682C250.054 82.6682 249.644 82.6916 249.152 82.7385C249.082 83.1955 249.046 83.5705 249.046 83.8635L249.064 86.2189V91.3869L249.134 96.9592L249.117 99.2443C249.117 100.053 249.187 100.662 249.328 101.072C249.515 101.154 249.861 101.231 250.365 101.301C250.459 101.313 250.892 101.406 251.666 101.582C252.017 101.664 252.328 101.758 252.597 101.863C252.656 102.285 252.685 102.543 252.685 102.637C252.685 102.742 252.668 102.895 252.632 103.094C252.375 103.106 252.164 103.112 252 103.112C250.793 103.112 249.767 103.07 248.923 102.988C248.08 102.895 246.55 102.848 244.335 102.848C243.984 102.848 242.953 102.918 241.242 103.059C240.574 103.106 240.14 103.129 239.941 103.129C239.929 102.953 239.918 102.819 239.906 102.725L239.888 102.32V102.18C240.146 101.84 240.632 101.588 241.347 101.424C242.566 101.131 243.41 100.867 243.878 100.633C243.996 100.41 244.066 100.117 244.089 99.7541C244.171 98.3478 244.212 96.1096 244.212 93.0392L244.125 86.3947C244.125 84.5666 244.089 83.4592 244.019 83.0724C243.996 82.967 243.955 82.8908 243.896 82.8439C243.837 82.7853 243.755 82.7502 243.65 82.7385C243.287 82.6916 242.103 82.6682 240.099 82.6682C238.998 82.6682 238.259 82.7736 237.884 82.9846C237.38 83.2775 236.625 84.0744 235.617 85.3752C235.324 85.7502 235.107 85.9377 234.966 85.9377C234.427 85.6564 234.082 85.4279 233.929 85.2521C234.293 84.4904 234.796 82.967 235.441 80.6818C235.628 80.0139 235.763 79.5627 235.845 79.3283Z" fill="#FFFDFB"/>
</svg>
